<svg width="16" height="16" viewBox="0 0 16 16" fill="none" xmlns="http://www.w3.org/2000/svg">
<path d="M8 0C7.52234 0 7.13514 0.387222 7.13514 0.864865V7.13516H0.864865C0.387222 7.13516 0 7.52236 0 8.00003C0 8.47769 0.387222 8.86489 0.864865 8.86489H7.13514V15.1351C7.13514 15.6128 7.52234 16 8 16C8.47766 16 8.86487 15.6128 8.86487 15.1351V8.86489H15.1351C15.6128 8.86489 16 8.47769 16 8.00003C16 7.52236 15.6128 7.13516 15.1351 7.13516H8.86487V0.864865C8.86487 0.387222 8.47766 0 8 0Z" fill="#71839B"/>
</svg>
