<svg width="20" height="20" viewBox="0 0 20 20" fill="none" xmlns="http://www.w3.org/2000/svg">
<path d="M17.8571 1.42857H15.7143V0.714286C15.7143 0.321417 15.3929 0 15 0C14.6071 0 14.2857 0.321417 14.2857 0.714286V1.42857H5.71429V0.714286C5.71429 0.321417 5.39287 0 5 0C4.60713 0 4.28571 0.321417 4.28571 0.714286V1.42857H2.14286C0.964297 1.42857 0 2.39287 0 3.57143V17.8571C0 19.0357 0.964297 20 2.14286 20H17.8571C19.0357 20 20 19.0357 20 17.8571V3.57143C20 2.39287 19.0357 1.42857 17.8571 1.42857ZM2.14286 2.85714H4.28571V3.57143C4.28571 3.9643 4.60713 4.28571 5 4.28571C5.39287 4.28571 5.71429 3.9643 5.71429 3.57143V2.85714H14.2857V3.57143C14.2857 3.9643 14.6071 4.28571 15 4.28571C15.3929 4.28571 15.7143 3.9643 15.7143 3.57143V2.85714H17.8571C18.25 2.85714 18.5714 3.17856 18.5714 3.57143V7.14286H1.42857V3.57143C1.42857 3.17856 1.74999 2.85714 2.14286 2.85714ZM17.8571 18.5714H2.14286C1.74999 18.5714 1.42857 18.25 1.42857 17.8571V8.57143H18.5714V17.8571C18.5714 18.25 18.25 18.5714 17.8571 18.5714Z" fill="#959595"/>
<path d="M5.71317 10.7148H4.2846C3.89173 10.7148 3.57031 11.0363 3.57031 11.4291C3.57031 11.822 3.89173 12.1434 4.2846 12.1434H5.71317C6.10604 12.1434 6.42746 11.822 6.42746 11.4291C6.42746 11.0363 6.10604 10.7148 5.71317 10.7148Z" fill="#959595"/>
<path d="M10.7132 10.7148H9.2846C8.89173 10.7148 8.57031 11.0363 8.57031 11.4291C8.57031 11.822 8.89173 12.1434 9.2846 12.1434H10.7132C11.106 12.1434 11.4275 11.822 11.4275 11.4291C11.4275 11.0363 11.106 10.7148 10.7132 10.7148Z" fill="#959595"/>
<path d="M15.7132 10.7148H14.2846C13.8917 10.7148 13.5703 11.0363 13.5703 11.4291C13.5703 11.822 13.8917 12.1434 14.2846 12.1434H15.7132C16.106 12.1434 16.4275 11.822 16.4275 11.4291C16.4275 11.0363 16.106 10.7148 15.7132 10.7148Z" fill="#959595"/>
<path d="M5.71317 15H4.2846C3.89173 15 3.57031 15.3214 3.57031 15.7143C3.57031 16.1072 3.89173 16.4286 4.2846 16.4286H5.71317C6.10604 16.4286 6.42746 16.1072 6.42746 15.7143C6.42746 15.3214 6.10604 15 5.71317 15Z" fill="#959595"/>
<path d="M10.7132 15H9.2846C8.89173 15 8.57031 15.3214 8.57031 15.7143C8.57031 16.1072 8.89173 16.4286 9.2846 16.4286H10.7132C11.106 16.4286 11.4275 16.1072 11.4275 15.7143C11.4275 15.3214 11.106 15 10.7132 15Z" fill="#959595"/>
<path d="M15.7132 15H14.2846C13.8917 15 13.5703 15.3214 13.5703 15.7143C13.5703 16.1072 13.8917 16.4286 14.2846 16.4286H15.7132C16.106 16.4286 16.4275 16.1072 16.4275 15.7143C16.4275 15.3214 16.106 15 15.7132 15Z" fill="#959595"/>
</svg>
