<svg width="16" height="20" viewBox="0 0 16 20" fill="none" xmlns="http://www.w3.org/2000/svg">
<path d="M14.835 3.54206H11.9564V2.43527C11.9564 1.08936 10.867 0 9.5211 0H5.97819C4.63227 0 3.54291 1.08936 3.54291 2.43527V3.54206H0.664243C0.301407 3.54206 0 3.84347 0 4.20631C0 4.56914 0.301407 4.87055 0.664243 4.87055H14.835C15.1979 4.87055 15.4993 4.56914 15.4993 4.20631C15.4993 3.84347 15.1979 3.54206 14.835 3.54206ZM4.8714 2.43527C4.8714 1.82417 5.36708 1.32849 5.97819 1.32849H9.5211C10.1322 1.32849 10.6279 1.82417 10.6279 2.43527V3.54206H4.8714V2.43527ZM14.6142 6.86328V16.6052C14.6142 17.9511 13.5248 19.0405 12.1789 19.0405L3.32207 19.0413C1.97615 19.0413 0.886791 17.952 0.886791 16.6061V6.86411C0.886791 6.50127 1.1882 6.19987 1.55103 6.19987C1.91387 6.19987 2.21528 6.50127 2.21528 6.86411V16.6061C2.21528 17.2172 2.71096 17.7128 3.32207 17.7128H12.1789C12.79 17.7128 13.2857 17.2172 13.2857 16.6061V6.86411C13.2857 6.50127 13.5871 6.19987 13.95 6.19987C14.3128 6.19987 14.6142 6.50127 14.6142 6.86411V6.86328ZM5.97904 15.4984C5.6162 15.4984 5.3148 15.197 5.3148 14.8342V7.74922C5.3148 7.38638 5.6162 7.08498 5.97904 7.08498C6.34187 7.08498 6.64328 7.38638 6.64328 7.74922V14.8342C6.64328 15.197 6.34187 15.4984 5.97904 15.4984ZM9.5211 15.4984C9.15827 15.4984 8.85686 15.197 8.85686 14.8342V7.74922C8.85686 7.38638 9.15827 7.08498 9.5211 7.08498C9.88394 7.08498 10.1853 7.38638 10.1853 7.74922V14.8342C10.1853 15.197 9.88394 15.4984 9.5211 15.4984Z" fill="#F93A37"/>
</svg>
