<svg width="17" height="17" viewBox="0 0 17 17" fill="none" xmlns="http://www.w3.org/2000/svg">
<path d="M13.9866 0.157769C14.0156 0.170336 14.0446 0.182904 14.0745 0.195852C14.4824 0.395198 14.8068 0.782593 15.1257 1.09957C15.1671 1.14061 15.2086 1.18151 15.2503 1.22226C15.5442 1.50974 15.803 1.7868 15.9576 2.17582C15.9698 2.2058 15.982 2.23579 15.9946 2.26668C16.1551 2.72963 16.0914 3.29819 15.8851 3.73221C15.6561 4.16055 15.2632 4.49711 14.9227 4.83763C14.8787 4.88169 14.8347 4.92576 14.7908 4.96984C14.671 5.08998 14.551 5.21003 14.4311 5.33006C14.3014 5.45988 14.1718 5.5898 14.0422 5.71969C13.7298 6.03264 13.4173 6.34544 13.1048 6.65822C12.9723 6.79085 12.8398 6.9235 12.7073 7.05615C12.2029 7.56117 11.6984 8.06614 11.1938 8.57099C11.1621 8.60261 11.1305 8.63423 11.0989 8.66585C11.0754 8.68937 11.0754 8.68937 11.0514 8.71336C10.9721 8.7928 10.8927 8.87223 10.8133 8.95166C10.7975 8.96743 10.7818 8.98319 10.7655 8.99943C10.2539 9.51126 9.74259 10.0233 9.23139 10.5356C8.6903 11.0777 8.14898 11.6197 7.60741 12.1613C7.3124 12.4564 7.0175 12.7516 6.72287 13.047C6.47222 13.2983 6.22136 13.5495 5.97022 13.8003C5.84209 13.9283 5.71408 14.0564 5.58633 14.1847C5.4694 14.3022 5.35219 14.4194 5.23475 14.5363C5.1923 14.5787 5.14997 14.6212 5.10775 14.6638C5.05034 14.7216 4.99255 14.7791 4.93466 14.8365C4.91022 14.8614 4.91022 14.8614 4.88529 14.8869C4.72391 15.0453 4.53664 15.1377 4.31778 15.193C4.28638 15.2011 4.25497 15.2092 4.22261 15.2176C4.18897 15.2259 4.15534 15.2342 4.12069 15.2428C4.08462 15.252 4.04854 15.2612 4.01138 15.2707C3.9131 15.2956 3.81477 15.3203 3.71639 15.3449C3.63388 15.3655 3.55141 15.3863 3.46894 15.4071C3.27412 15.4562 3.07922 15.5049 2.88427 15.5535C2.6841 15.6034 2.48409 15.6539 2.28414 15.7046C2.11165 15.7484 1.93907 15.7917 1.76641 15.8348C1.66365 15.8604 1.56093 15.8862 1.45831 15.9124C1.34359 15.9415 1.22873 15.97 1.11382 15.9984C1.0805 16.007 1.04719 16.0156 1.01286 16.0244C0.776459 16.0818 0.477594 16.1502 0.245389 16.0516C0.121442 15.9731 0.0494596 15.8785 0.00520292 15.7379C-0.0131369 15.503 0.0184284 15.2911 0.0775352 15.0646C0.0852331 15.0337 0.0929306 15.0029 0.100862 14.9711C0.126186 14.8701 0.152081 14.7692 0.177986 14.6682C0.19592 14.5972 0.213818 14.5261 0.231681 14.4549C0.278728 14.2681 0.326258 14.0813 0.373896 13.8946C0.421804 13.7065 0.469264 13.5182 0.516756 13.33C0.570448 13.1173 0.624189 12.9047 0.678233 12.6921C0.686464 12.6597 0.694694 12.6273 0.703174 12.5939C0.719303 12.5306 0.735524 12.4673 0.751845 12.404C0.790199 12.2547 0.826767 12.1055 0.859426 11.9549C0.865796 11.9266 0.872164 11.8983 0.878726 11.8692C0.890409 11.8169 0.90151 11.7645 0.911846 11.712C0.995752 11.3438 1.37505 11.0717 1.63326 10.8134C1.67806 10.7685 1.72285 10.7236 1.76763 10.6786C1.89037 10.5555 2.01319 10.4325 2.13604 10.3095C2.26865 10.1767 2.40117 10.0439 2.53371 9.91098C2.85353 9.5904 3.1735 9.26997 3.4935 8.94956C3.5839 8.85905 3.67429 8.76852 3.76469 8.678C4.32633 8.11557 4.88802 7.55319 5.44986 6.99095C5.57986 6.86086 5.70986 6.73077 5.83986 6.60068C5.85601 6.58452 5.87215 6.56836 5.88879 6.55171C6.41255 6.02758 6.936 5.50315 7.45929 4.97855C7.99774 4.43877 8.53643 3.89924 9.07547 3.36004C9.15163 3.28385 9.2278 3.20766 9.30396 3.13146C9.31895 3.11647 9.33393 3.10148 9.34938 3.08603C9.59024 2.84506 9.83083 2.60382 10.0713 2.36249C10.3132 2.11986 10.5553 1.87751 10.7977 1.63545C10.9289 1.50439 11.06 1.3732 11.1907 1.24167C11.3105 1.12116 11.4307 1.00101 11.5512 0.881148C11.5946 0.837831 11.6378 0.794383 11.681 0.750788C12.2953 0.130138 13.1282 -0.223571 13.9866 0.157769ZM12.583 1.35292C12.5569 1.37733 12.5569 1.37733 12.5303 1.40224C12.2915 1.62735 12.0607 1.8608 11.8294 2.09353C11.7829 2.14015 11.7365 2.18676 11.69 2.23337C11.5777 2.34603 11.4655 2.45878 11.3533 2.57159C11.4765 2.71916 11.6048 2.85887 11.7412 2.99436C11.7601 3.01335 11.7791 3.03233 11.7987 3.0519C11.8607 3.11388 11.9228 3.17575 11.9849 3.23762C12.0282 3.28087 12.0715 3.32414 12.1148 3.36741C12.2282 3.4807 12.3418 3.5939 12.4553 3.70707C12.5713 3.82281 12.6873 3.93863 12.8033 4.05445C13.0304 4.28126 13.2577 4.50798 13.485 4.73462C13.6031 4.6346 13.7201 4.53464 13.8304 4.42606C13.8525 4.40439 13.8746 4.38272 13.8973 4.3604C13.9204 4.33757 13.9434 4.31474 13.9672 4.29122C13.9916 4.2671 14.0159 4.24299 14.041 4.21814C14.0923 4.16737 14.1434 4.11655 14.1945 4.06568C14.2466 4.01401 14.2987 3.96249 14.351 3.91111C14.4272 3.83632 14.5029 3.76111 14.5785 3.6858C14.6017 3.66316 14.6249 3.64052 14.6488 3.6172C14.8637 3.40132 15.0213 3.17532 15.0308 2.86352C15.0249 2.46136 14.7224 2.20604 14.4579 1.93826C14.4379 1.91803 14.4179 1.89781 14.3974 1.87698C14.3555 1.83468 14.3136 1.79243 14.2716 1.75023C14.2291 1.70732 14.1867 1.66428 14.1444 1.6211C14.0827 1.55801 14.0205 1.49535 13.9583 1.43276C13.9397 1.41363 13.9211 1.39449 13.9019 1.37477C13.7211 1.1948 13.5087 1.06503 13.2479 1.05707C12.9673 1.06316 12.785 1.16154 12.583 1.35292ZM10.5083 3.40877C10.483 3.4341 10.4577 3.45943 10.4316 3.48553C10.3879 3.5291 10.3879 3.5291 10.3432 3.57355C10.3107 3.60632 10.2781 3.63909 10.2455 3.67187C10.211 3.70627 10.1766 3.74067 10.1421 3.77505C10.0471 3.86998 9.95218 3.96511 9.85734 4.06027C9.75518 4.1627 9.65284 4.26495 9.55052 4.36722C9.37314 4.54457 9.19587 4.72204 9.01867 4.89958C8.76248 5.15628 8.50612 5.41281 8.24971 5.6693C7.83375 6.0854 7.41793 6.50163 7.0022 6.91795C6.59826 7.32247 6.19425 7.72693 5.79015 8.13129C5.76526 8.1562 5.74037 8.18111 5.71472 8.20677C5.58985 8.33172 5.46499 8.45667 5.34012 8.58161C4.30352 9.61886 3.26715 10.6563 2.23093 11.694C2.27248 11.7799 2.31075 11.8443 2.37853 11.9118C2.39576 11.9291 2.41299 11.9464 2.43074 11.9643C2.44957 11.9829 2.4684 12.0015 2.4878 12.0206C2.50768 12.0405 2.52756 12.0604 2.54805 12.0809C2.61371 12.1465 2.6796 12.2119 2.74549 12.2773C2.7911 12.3228 2.83669 12.3683 2.88227 12.4138C3.00221 12.5335 3.12234 12.6531 3.24251 12.7725C3.36512 12.8945 3.48756 13.0167 3.61001 13.1388C3.85026 13.3784 4.0907 13.6177 4.33127 13.857C4.44357 13.8093 4.51547 13.7433 4.60134 13.6573C4.63042 13.6284 4.6595 13.5994 4.68946 13.5696C4.72162 13.5372 4.75378 13.5049 4.78593 13.4726C4.82016 13.4384 4.85441 13.4042 4.88867 13.37C4.98288 13.2759 5.0769 13.1816 5.17089 13.0873C5.27224 12.9857 5.37376 12.8843 5.47527 12.7828C5.65115 12.607 5.82691 12.431 6.0026 12.255C6.25661 12.0005 6.5108 11.7461 6.76502 11.4918C7.17747 11.0792 7.58978 10.6665 8.00199 10.2537C8.40247 9.85264 8.80301 9.45165 9.20364 9.05076C9.24067 9.0137 9.24067 9.0137 9.27845 8.9759C9.4023 8.85197 9.52615 8.72804 9.64999 8.60411C10.6777 7.57572 11.7053 6.5471 12.7326 5.51833C12.6716 5.38509 12.5796 5.29382 12.4768 5.19165C12.457 5.17176 12.4372 5.15187 12.4168 5.13137C12.3515 5.06574 12.2859 5.00035 12.2203 4.93496C12.1748 4.88946 12.1294 4.84396 12.0839 4.79844C11.9887 4.70316 11.8934 4.60799 11.7981 4.51291C11.6756 4.39076 11.5533 4.26834 11.4312 4.14583C11.3375 4.05186 11.2436 3.95804 11.1496 3.86427C11.1045 3.81917 11.0594 3.77402 11.0144 3.72883C10.9515 3.66585 10.8885 3.60308 10.8255 3.54036C10.8067 3.5215 10.788 3.50264 10.7687 3.48322C10.6495 3.34567 10.6495 3.34567 10.5083 3.40877ZM1.76071 12.7911C1.68349 13.0118 1.62367 13.2339 1.56833 13.461C1.55942 13.4972 1.55051 13.5335 1.54133 13.5708C1.52264 13.647 1.50402 13.7231 1.48545 13.7992C1.45694 13.9161 1.42819 14.0329 1.39941 14.1497C1.38125 14.2238 1.3631 14.2979 1.34498 14.372C1.33636 14.407 1.32774 14.442 1.31886 14.478C1.311 14.5104 1.30315 14.5427 1.29505 14.576C1.2881 14.6045 1.28114 14.6329 1.27397 14.6623C1.25599 14.7378 1.25599 14.7378 1.25914 14.8288C1.48488 14.8073 1.69896 14.7542 1.91843 14.6984C1.97635 14.6838 1.97635 14.6838 2.03543 14.669C2.13729 14.6434 2.23912 14.6176 2.34093 14.5918C2.44514 14.5655 2.5494 14.5393 2.65365 14.513C2.85761 14.4617 3.06154 14.4102 3.26543 14.3586C3.27543 14.262 3.27543 14.262 3.2097 14.1973C3.18363 14.1713 3.15754 14.1453 3.13067 14.1186C3.11635 14.1042 3.10203 14.0898 3.08728 14.075C3.03982 14.0274 2.99203 13.9802 2.94423 13.933C2.91125 13.9001 2.8783 13.8673 2.84536 13.8343C2.77627 13.7654 2.70702 13.6966 2.63766 13.6279C2.54854 13.5397 2.45969 13.4512 2.37094 13.3626C2.3029 13.2947 2.23476 13.2268 2.16659 13.159C2.13379 13.1264 2.101 13.0938 2.06823 13.0611C2.02253 13.0156 1.97671 12.9703 1.93087 12.9249C1.89171 12.8861 1.89171 12.8861 1.85176 12.8464C1.80179 12.7876 1.80179 12.7876 1.76071 12.7911Z" fill="#71839B"/>
</svg>
