<svg width="17" height="20" viewBox="0 0 17 20" fill="none" xmlns="http://www.w3.org/2000/svg">
<path d="M6.09898 16.2292H1.39247V1.39247H13.7366V8.5985C13.7366 8.79083 13.8149 8.96488 13.9402 9.09021C14.0664 9.2164 14.2405 9.29472 14.4328 9.29472C14.8175 9.29472 15.129 8.98317 15.129 8.59849V0.69623C15.129 0.311555 14.8175 0 14.4328 0H0.69623C0.311554 0 0 0.311555 0 0.69623V16.9254C0 17.3101 0.311554 17.6216 0.69623 17.6216H6.09897C6.48365 17.6216 6.7952 17.3101 6.7952 16.9254C6.7952 16.7331 6.71688 16.559 6.59156 16.4328C6.46536 16.3075 6.2913 16.2292 6.09898 16.2292Z" fill="#959595"/>
<path d="M9.28658 8.81342C9.28658 8.42874 8.97502 8.11719 8.59035 8.11719H3.82123C3.43655 8.11719 3.125 8.42874 3.125 8.81342C3.125 9.19809 3.43655 9.50965 3.82123 9.50965H8.59035C8.97502 9.50965 9.28658 9.19809 9.28658 8.81342Z" fill="#959595"/>
<path d="M5.70802 11.8555H3.82123C3.43655 11.8555 3.125 12.167 3.125 12.5517C3.125 12.9364 3.43655 13.2479 3.82123 13.2479H5.70802C6.0927 13.2479 6.40425 12.9364 6.40425 12.5517C6.40425 12.167 6.0927 11.8555 5.70802 11.8555Z" fill="#959595"/>
<path d="M3.82123 5.7616H11.3118C11.6964 5.7616 12.008 5.45005 12.008 5.06537C12.008 4.6807 11.6964 4.36914 11.3118 4.36914H3.82123C3.43655 4.36914 3.125 4.6807 3.125 5.06537C3.125 5.44918 3.43655 5.7616 3.82123 5.7616Z" fill="#959595"/>
<path d="M15.6027 17.1127C17.0213 15.2146 16.8742 12.508 15.1502 10.7841C14.6306 10.2645 14.0206 9.89288 13.3713 9.65877C11.6569 9.04 9.66226 9.4116 8.28963 10.7841C6.91807 12.1556 6.54645 14.1478 7.16348 15.8622C7.39759 16.5123 7.76921 17.1241 8.28963 17.6445C9.23564 18.5905 10.4775 19.0631 11.7195 19.0631C12.7412 19.0631 13.7612 18.7376 14.6176 18.0971L15.8108 19.2903C15.9474 19.4269 16.1259 19.4948 16.3043 19.4948C16.4827 19.4948 16.6602 19.4269 16.7968 19.2911C17.0684 19.0196 17.0684 18.5784 16.7968 18.3068L15.6027 17.1127ZM9.27407 11.7692C9.94853 11.0948 10.8345 10.758 11.7197 10.758C12.6056 10.758 13.4907 11.0956 14.1653 11.7692C15.5142 13.1182 15.5142 15.3121 14.1653 16.6602C12.8163 18.0083 10.6233 18.0083 9.27429 16.6602C7.92621 15.3113 7.92599 13.1174 9.27407 11.7692Z" fill="#959595"/>
</svg>
