<svg width="18" height="18" viewBox="0 0 18 18" fill="none" xmlns="http://www.w3.org/2000/svg">
<path d="M8.97738 17.9994C6.72072 17.9994 4.46405 18 2.20739 17.9994C0.879053 17.9988 0.00101157 17.1196 0.00043353 15.7902C-0.00014451 11.2624 -0.00014451 6.73459 0.00043353 2.20681C0.00043353 0.878475 0.879631 0.000433529 2.2097 0.000433529C6.73748 -0.00014451 11.2658 -0.00014451 15.7936 0.000433529C17.1225 0.000433529 18 0.878475 18 2.20912C18.0006 6.7369 18.0006 11.2653 18 15.793C18 17.1225 17.1214 17.9994 15.7913 18C13.5196 18 11.2485 17.9994 8.97738 17.9994ZM6.93864 1.39351C6.93864 6.47736 6.93864 11.541 6.93864 16.604C8.32189 16.604 9.68895 16.604 11.0641 16.604C11.0641 11.5294 11.0641 6.4658 11.0641 1.39351C9.68548 1.39351 8.31842 1.39351 6.93864 1.39351ZM5.53054 1.38484C4.39816 1.38484 3.28832 1.38426 2.17906 1.38484C1.64958 1.38542 1.38484 1.65189 1.38484 2.18542C1.38426 6.72766 1.38426 11.2705 1.38484 15.8127C1.38484 16.3422 1.6542 16.6144 2.17906 16.615C3.22474 16.6156 4.26983 16.6156 5.31551 16.615C5.38487 16.615 5.45481 16.6087 5.53111 16.6052C5.53054 11.5294 5.53054 6.47043 5.53054 1.38484ZM12.4768 1.38657C12.4768 6.47563 12.4768 11.5398 12.4768 16.6156C13.5797 16.6156 14.6676 16.6156 15.7561 16.6156C16.374 16.6156 16.6156 16.3722 16.6156 15.7491C16.6156 11.2502 16.6156 6.75078 16.6156 2.2519C16.6156 2.17964 16.6185 2.10739 16.6133 2.03571C16.589 1.68946 16.3168 1.39409 15.9722 1.39062C14.8121 1.38021 13.652 1.38657 12.4768 1.38657Z" fill="#A9A9A9"/>
</svg>
