<svg width="15" height="17" viewBox="0 0 15 17" fill="none" xmlns="http://www.w3.org/2000/svg">
<path d="M14.1667 5.01994L9.16675 0.63661C8.70839 0.226648 8.11502 0 7.50008 0C6.88513 0 6.29176 0.226648 5.83341 0.63661L0.833412 5.01994C0.568719 5.25667 0.357496 5.54707 0.213806 5.87181C0.0701154 6.19655 -0.0027438 6.54818 7.89951e-05 6.90328V14.1866C7.89951e-05 14.8497 0.263471 15.4855 0.732312 15.9544C1.20115 16.4232 1.83704 16.6866 2.50008 16.6866H12.5001C13.1631 16.6866 13.799 16.4232 14.2678 15.9544C14.7367 15.4855 15.0001 14.8497 15.0001 14.1866V6.89494C15.0017 6.54125 14.9283 6.19123 14.7846 5.86801C14.641 5.5448 14.4304 5.25574 14.1667 5.01994ZM9.16675 15.0199H5.83341V10.8533C5.83341 10.6323 5.92121 10.4203 6.07749 10.264C6.23377 10.1077 6.44573 10.0199 6.66675 10.0199H8.33341C8.55443 10.0199 8.76639 10.1077 8.92267 10.264C9.07895 10.4203 9.16675 10.6323 9.16675 10.8533V15.0199ZM13.3334 14.1866C13.3334 14.4076 13.2456 14.6196 13.0893 14.7759C12.9331 14.9321 12.7211 15.0199 12.5001 15.0199H10.8334V10.8533C10.8334 10.1902 10.57 9.55435 10.1012 9.08551C9.63234 8.61667 8.99645 8.35328 8.33341 8.35328H6.66675C6.0037 8.35328 5.36782 8.61667 4.89898 9.08551C4.43014 9.55435 4.16675 10.1902 4.16675 10.8533V15.0199H2.50008C2.27907 15.0199 2.0671 14.9321 1.91082 14.7759C1.75454 14.6196 1.66675 14.4076 1.66675 14.1866V6.89494C1.6669 6.77662 1.69224 6.65969 1.74109 6.55193C1.78995 6.44416 1.86119 6.34803 1.95008 6.26994L6.95008 1.89494C7.10215 1.76134 7.29766 1.68766 7.50008 1.68766C7.7025 1.68766 7.898 1.76134 8.05008 1.89494L13.0501 6.26994C13.139 6.34803 13.2102 6.44416 13.2591 6.55193C13.3079 6.65969 13.3333 6.77662 13.3334 6.89494V14.1866Z" fill="#71839B"/>
</svg>
