<svg width="18" height="18" viewBox="0 0 18 18" fill="none" xmlns="http://www.w3.org/2000/svg">
<path d="M11.7294 7.40806H11.1121C10.771 7.40806 10.4948 7.13181 10.4948 6.79072C10.4948 6.44963 10.771 6.17338 11.1121 6.17338H11.7294C12.0705 6.17338 12.3468 6.44963 12.3468 6.79072C12.3468 7.13181 12.0705 7.40806 11.7294 7.40806ZM14.8161 6.79072C14.8161 6.44963 14.5399 6.17338 14.1988 6.17338H13.5814C13.2404 6.17338 12.9641 6.44963 12.9641 6.79072C12.9641 7.13181 13.2404 7.40806 13.5814 7.40806H14.1988C14.5399 7.40806 14.8161 7.13181 14.8161 6.79072ZM15.4335 3.70403H12.9641V1.85201C12.9641 0.831085 12.133 0 11.1121 0H6.17338C5.15245 0 4.32137 0.831085 4.32137 1.85201V3.70403H1.85201C0.831085 3.70403 0 4.53512 0 5.55604V11.7294C0 12.7504 0.831085 13.5814 1.85201 13.5814H3.70403V15.4335C3.70403 16.4544 4.53512 17.2855 5.55604 17.2855H11.7294C12.7504 17.2855 13.5814 16.4544 13.5814 15.4335V13.5814H15.4335C16.4544 13.5814 17.2855 12.7504 17.2855 11.7294V5.55604C17.2855 4.53512 16.4544 3.70403 15.4335 3.70403ZM5.55604 1.85201C5.55604 1.5117 5.83307 1.23468 6.17338 1.23468H11.1121C11.4524 1.23468 11.7294 1.5117 11.7294 1.85201V3.70403H5.55604V1.85201ZM12.3468 15.4335C12.3468 15.7738 12.0697 16.0508 11.7294 16.0508H5.55604C5.21573 16.0508 4.93871 15.7738 4.93871 15.4335V9.87741H12.3468V15.4335ZM16.0508 11.7294C16.0508 12.0697 15.7738 12.3468 15.4335 12.3468H13.5814V9.87741H14.1988C14.5399 9.87741 14.8161 9.60116 14.8161 9.26007C14.8161 8.91899 14.5399 8.64274 14.1988 8.64274H3.08669C2.7456 8.64274 2.46935 8.91899 2.46935 9.26007C2.46935 9.60116 2.7456 9.87741 3.08669 9.87741H3.70403V12.3468H1.85201C1.5117 12.3468 1.23468 12.0697 1.23468 11.7294V5.55604C1.23468 5.21573 1.5117 4.93871 1.85201 4.93871H15.4335C15.7738 4.93871 16.0508 5.21573 16.0508 5.55604V11.7294ZM11.1121 11.7294C11.1121 11.3883 10.8358 11.1121 10.4948 11.1121H6.79072C6.44963 11.1121 6.17338 11.3883 6.17338 11.7294C6.17338 12.0705 6.44963 12.3468 6.79072 12.3468H10.4948C10.8358 12.3468 11.1121 12.0705 11.1121 11.7294ZM9.87741 14.1988C9.87741 13.8577 9.60116 13.5814 9.26007 13.5814H6.79072C6.44963 13.5814 6.17338 13.8577 6.17338 14.1988C6.17338 14.5399 6.44963 14.8161 6.79072 14.8161H9.26007C9.60116 14.8161 9.87741 14.5399 9.87741 14.1988Z" fill="#71839B"/>
</svg>
