<svg width="17" height="17" viewBox="0 0 17 17" fill="none" xmlns="http://www.w3.org/2000/svg">
<path d="M15.0362 8.88447C14.9026 8.73239 14.8289 8.53689 14.8289 8.33447C14.8289 8.13204 14.9026 7.93654 15.0362 7.78447L16.1029 6.58447C16.2204 6.45336 16.2934 6.28839 16.3114 6.11322C16.3293 5.93806 16.2914 5.76171 16.2029 5.60947L14.5362 2.72613C14.4486 2.57407 14.3153 2.45353 14.1552 2.38171C13.9951 2.30988 13.8164 2.29043 13.6445 2.32613L12.0779 2.6428C11.8785 2.68399 11.671 2.65079 11.4944 2.54947C11.3179 2.44814 11.1845 2.2857 11.1195 2.0928L10.6112 0.5678C10.5553 0.402283 10.4488 0.258521 10.3067 0.156835C10.1647 0.0551491 9.99425 0.00068233 9.81954 0.0011333H6.48621C6.30449 -0.00835173 6.12465 0.0419053 5.97418 0.144228C5.8237 0.246551 5.71086 0.395316 5.65288 0.5678L5.18621 2.0928C5.12121 2.2857 4.98785 2.44814 4.8113 2.54947C4.63475 2.65079 4.42722 2.68399 4.22788 2.6428L2.61954 2.32613C2.45667 2.30312 2.29063 2.32882 2.14233 2.4C1.99404 2.47118 1.87013 2.58466 1.78621 2.72613L0.119542 5.60947C0.0288425 5.76001 -0.0119391 5.93537 0.00302795 6.11049C0.017995 6.2856 0.0879444 6.4515 0.202876 6.58447L1.26121 7.78447C1.39481 7.93654 1.46849 8.13204 1.46849 8.33447C1.46849 8.53689 1.39481 8.73239 1.26121 8.88447L0.202876 10.0845C0.0879444 10.2174 0.017995 10.3833 0.00302795 10.5584C-0.0119391 10.7336 0.0288425 10.9089 0.119542 11.0595L1.78621 13.9428C1.87379 14.0949 2.00714 14.2154 2.16725 14.2872C2.32736 14.3591 2.50606 14.3785 2.67788 14.3428L4.24454 14.0261C4.44389 13.9849 4.65142 14.0181 4.82797 14.1195C5.00452 14.2208 5.13788 14.3832 5.20288 14.5761L5.71121 16.1011C5.76919 16.2736 5.88204 16.4224 6.03251 16.5247C6.18299 16.627 6.36282 16.6773 6.54454 16.6678H9.87788C10.0526 16.6683 10.223 16.6138 10.3651 16.5121C10.5071 16.4104 10.6136 16.2667 10.6695 16.1011L11.1779 14.5761C11.2429 14.3832 11.3762 14.2208 11.5528 14.1195C11.7293 14.0181 11.9369 13.9849 12.1362 14.0261L13.7029 14.3428C13.8747 14.3785 14.0534 14.3591 14.2135 14.2872C14.3736 14.2154 14.507 14.0949 14.5945 13.9428L16.2612 11.0595C16.3497 10.9072 16.3877 10.7309 16.3697 10.5557C16.3517 10.3805 16.2787 10.2156 16.1612 10.0845L15.0362 8.88447ZM13.7945 10.0011L14.4612 10.7511L13.3945 12.6011L12.4112 12.4011C11.811 12.2784 11.1867 12.3804 10.6567 12.6876C10.1267 12.9949 9.728 13.486 9.53621 14.0678L9.21954 15.0011H7.08621L6.78621 14.0511C6.59442 13.4693 6.19569 12.9782 5.66571 12.671C5.13573 12.3637 4.51139 12.2618 3.91121 12.3845L2.92788 12.5845L1.84454 10.7428L2.51121 9.9928C2.92117 9.53445 3.14782 8.94108 3.14782 8.32613C3.14782 7.71119 2.92117 7.11782 2.51121 6.65947L1.84454 5.90947L2.91121 4.07613L3.89454 4.27613C4.49473 4.39882 5.11907 4.29687 5.64905 3.98963C6.17903 3.6824 6.57775 3.19127 6.76954 2.60947L7.08621 1.6678H9.21954L9.53621 2.6178C9.728 3.1996 10.1267 3.69073 10.6567 3.99797C11.1867 4.3052 11.811 4.40715 12.4112 4.28447L13.3945 4.08447L14.4612 5.93447L13.7945 6.68447C13.3892 7.14177 13.1654 7.7317 13.1654 8.3428C13.1654 8.9539 13.3892 9.54383 13.7945 10.0011ZM8.15288 5.00113C7.4936 5.00113 6.84914 5.19663 6.30097 5.5629C5.75281 5.92917 5.32557 6.44977 5.07328 7.05886C4.82098 7.66794 4.75497 8.33816 4.88359 8.98477C5.01221 9.63137 5.32968 10.2253 5.79585 10.6915C6.26203 11.1577 6.85597 11.4751 7.50257 11.6038C8.14918 11.7324 8.8194 11.6664 9.42849 11.4141C10.0376 11.1618 10.5582 10.7345 10.9244 10.1864C11.2907 9.6382 11.4862 8.99374 11.4862 8.33447C11.4862 7.45041 11.135 6.60257 10.5099 5.97744C9.88478 5.35232 9.03693 5.00113 8.15288 5.00113ZM8.15288 10.0011C7.82324 10.0011 7.50101 9.90339 7.22692 9.72025C6.95284 9.53711 6.73922 9.27682 6.61308 8.97227C6.48693 8.66773 6.45392 8.33262 6.51823 8.00932C6.58254 7.68601 6.74128 7.38904 6.97436 7.15596C7.20745 6.92287 7.50442 6.76413 7.82773 6.69982C8.15103 6.63552 8.48614 6.66852 8.79068 6.79467C9.09522 6.92081 9.35552 7.13443 9.53866 7.40852C9.72179 7.6826 9.81954 8.00483 9.81954 8.33447C9.81954 8.77649 9.64395 9.20042 9.33139 9.51298C9.01883 9.82554 8.5949 10.0011 8.15288 10.0011Z" fill="#71839B"/>
</svg>
