<svg width="14" height="16" viewBox="0 0 14 16" fill="none" xmlns="http://www.w3.org/2000/svg">
<path d="M8.23871 3.27934C8.37933 3.41979 8.56996 3.49868 8.76871 3.49868C8.96746 3.49868 9.15808 3.41979 9.29871 3.27934L10.0187 2.55934V12.7493C10.0187 12.9483 10.0977 13.139 10.2384 13.2797C10.379 13.4203 10.5698 13.4993 10.7687 13.4993C10.9676 13.4993 11.1584 13.4203 11.299 13.2797C11.4397 13.139 11.5187 12.9483 11.5187 12.7493V2.55934L12.2387 3.27934C12.3074 3.35303 12.3902 3.41213 12.4822 3.45312C12.5742 3.49411 12.6735 3.51615 12.7742 3.51793C12.8749 3.51971 12.9749 3.50118 13.0683 3.46346C13.1617 3.42574 13.2465 3.3696 13.3177 3.29838C13.389 3.22716 13.4451 3.14233 13.4828 3.04894C13.5206 2.95555 13.5391 2.85552 13.5373 2.75482C13.5355 2.65411 13.5135 2.5548 13.4725 2.4628C13.4315 2.3708 13.3724 2.288 13.2987 2.21934L11.2987 0.21934C11.1581 0.0788894 10.9675 0 10.7687 0C10.57 0 10.3793 0.0788894 10.2387 0.21934L8.23871 2.21934C8.09826 2.35997 8.01937 2.55059 8.01937 2.74934C8.01937 2.94809 8.09826 3.13871 8.23871 3.27934ZM3.51871 12.9393L4.23871 12.2193C4.30737 12.1457 4.39017 12.0866 4.48217 12.0456C4.57417 12.0046 4.67348 11.9825 4.77419 11.9807C4.87489 11.979 4.97492 11.9975 5.06831 12.0352C5.16169 12.0729 5.24653 12.1291 5.31775 12.2003C5.38897 12.2715 5.44511 12.3564 5.48283 12.4497C5.52055 12.5431 5.53908 12.6432 5.5373 12.7439C5.53552 12.8446 5.51348 12.9439 5.47249 13.0359C5.4315 13.1279 5.37239 13.2107 5.29871 13.2793L3.29871 15.2793C3.15808 15.4198 2.96746 15.4987 2.76871 15.4987C2.56996 15.4987 2.37933 15.4198 2.23871 15.2793L0.238708 13.2793C0.165021 13.2107 0.105919 13.1279 0.064927 13.0359C0.023935 12.9439 0.00189351 12.8446 0.000116722 12.7439C-0.00166006 12.6432 0.0168643 12.5431 0.0545854 12.4497C0.0923064 12.3564 0.148451 12.2715 0.21967 12.2003C0.290888 12.1291 0.375722 12.0729 0.46911 12.0352C0.562499 11.9975 0.662528 11.979 0.763231 11.9807C0.863934 11.9825 0.963247 12.0046 1.05525 12.0456C1.14725 12.0866 1.23005 12.1457 1.29871 12.2193L2.01871 12.9393V2.74934C2.01871 2.55043 2.09773 2.35966 2.23838 2.21901C2.37903 2.07836 2.5698 1.99934 2.76871 1.99934C2.96762 1.99934 3.15839 2.07836 3.29904 2.21901C3.43969 2.35966 3.51871 2.55043 3.51871 2.74934V12.9393Z" fill="#A9A9A9"/>
</svg>
